<svg xmlns="http://www.w3.org/2000/svg" viewBox="0 0 192 192" width="192" height="192">
  <rect width="192" height="192" fill="#000000" />
  
  <g transform="translate(96, 96) scale(0.375)">
    <circle r="190" fill="none" stroke="#6b5321" stroke-width="3" opacity="0.4" />
    <circle r="182" fill="none" stroke="#a6802f" stroke-width="2" stroke-dasharray="6,6" opacity="0.7" />
    <circle r="174" fill="none" stroke="#e0b034" stroke-width="4" opacity="0.15" />

    <path d="M -130,-40 C -160,-10 -150,40 -110,70 C -125,40 -120,0 -90,-20 Z" fill="#a6802f" opacity="0.6"/>
    <path d="M 130,-40 C 160,-10 150,40 110,70 C 125,40 120,0 90,-20 Z" fill="#a6802f" opacity="0.6"/>
    
    <path d="M 0,-155 L 8,-147 L 0,-139 L -8,-147 Z" fill="#e0b034" />
    <path d="M 0,155 L 8,147 L 0,139 L -8,147 Z" fill="#a6802f" />

    <path d="M-15,40 C-35,40 -45,23 -45,3 C-45,-12 -33,-25 -15,-32 C-12,-33 -10,-31 -10,-28 C-13,-18 -15,-5 -6,2 C-11,-15 -4,-28 10,-35 C23,-42 35,-32 32,-15 C30,-3 18,12 2,22 C12,31 28,23 35,13 C37,10 41,11 40,14 C34,29 15,40 -2,40 C-6,40 -11,40 -15,40 Z M-22,3 C-22,17 -13,24 -4,24 C4,24 2,-2 -11,-4 C-18,0 -22,0 -22,3 Z M12,-22 C5,-18 3,-4 10,2 C17,-4 21,-14 16,-20 C14,-22 13,-22 12,-22 Z" fill="#b84a26" opacity="0.85" transform="scale(1.5)" />

    <g id="letter-t" transform="translate(-45, -15)">
      <path d="M -45,-55 L 45,-55 L 45,-25 L 15,-25 L 15,55 L -15,55 L -15,-25 L -45,-25 Z" fill="#1a1306" transform="translate(3, 4)"/>
      <path d="M -45,-55 L 45,-55 L 45,-25 L 15,-25 L 15,55 L -15,55 L -15,-25 L -45,-25 Z" fill="#d1a136" stroke="#544011" stroke-width="2"/>
      <line x1="-35" y1="-40" x2="35" y2="-40" stroke="#40300c" stroke-width="3"/>
    </g>

    <g id="letter-r" transform="translate(45, 25)">
      <path d="M -35,-55 L 15,-55 C 35,-55 45,-40 45,-20 C 45,-2 30,10 10,10 L 25,55 L -10,55 L -23,15 L -35,15 L -35,55 L -55,55 L -55,-55 Z" fill="#1a1306" transform="translate(3, 4)"/>
      
      <path fill-rule="evenodd" d="M -35,-55 L 15,-55 C 35,-55 45,-40 45,-20 C 45,-2 30,10 10,10 L 25,55 L -10,55 L -23,15 L -15,15 L -15,-35 L -35,-35 L -35,55 L -55,55 L -55,-55 Z M -15,-15 L 5,-15 C 12,-15 17,-12 17,-5 C 17,2 12,5 5,5 L -15,5 Z" fill="#e6b33c" stroke="#544011" stroke-width="2"/>
      
      <line x1="-25" y1="-45" x2="5" y2="-45" stroke="#40300c" stroke-width="3"/>
    </g>
  </g>
</svg>
