<svg id="Camada_1" data-name="Camada 1" xmlns="http://www.w3.org/2000/svg" xmlns:xlink="http://www.w3.org/1999/xlink"
    viewBox="0 0 192.75 192.75">
    <defs>
        <style>
            @import url('https://fonts.googleapis.com/css2?family=Special+Elite&display=swap');
  .cls-1{fill:url(#Gradiente_sem_nome_4);}.cls-2{fill:#aa7918;}.cls-3{opacity:0.25;}.cls-4{fill:none;stroke:#aa7918;stroke-miterlimit:10;stroke-width:18px;}.cls-5{font-size:307.44px;fill:#ffeb99;font-family: 'Special Elite', cursive;}.cls-6{fill:url(#Gradiente_sem_nome_18);}.cls-7{fill:url(#Gradiente_sem_nome_18-2);}.cls-8{fill:url(#Gradiente_sem_nome_18-3);}.cls-9{fill:url(#Gradiente_sem_nome_18-4);}
            .cls-1 {
                fill: url(#Gradiente_sem_nome_4);
            }

            .cls-2 {
                fill: #aa7918;
            }

            .cls-3 {
                opacity: 0.25;
            }

            .cls-4 {
                fill: none;
                stroke: #aa7918;
                stroke-miterlimit: 10;
                stroke-width: 6.78px;
            }

            .cls-5 {
                font-size: 115.74px;
                fill: #ffeb99;
                font-family: SpecialElite-Regular, Special Elite;
            }

            .cls-6 {
                fill: url(#Gradiente_sem_nome_18);
            }

            .cls-7 {
                fill: url(#Gradiente_sem_nome_18-2);
            }

            .cls-8 {
                fill: url(#Gradiente_sem_nome_18-3);
            }

            .cls-9 {
                fill: url(#Gradiente_sem_nome_18-4);
            }
        </style>
        <radialGradient id="Gradiente_sem_nome_4" cx="96.38" cy="96.38" r="93.36" gradientUnits="userSpaceOnUse">
            <stop offset="0" stop-color="#4c3d00" />
            <stop offset="0.05" stop-color="#443700" />
            <stop offset="0.3" stop-color="#271f00" />
            <stop offset="0.54" stop-color="#110e00" />
            <stop offset="0.78" stop-color="#040300" />
            <stop offset="1" />
        </radialGradient>
        <linearGradient id="Gradiente_sem_nome_18" x1="84.19" y1="54.5" x2="84.19" y2="31.27"
            gradientTransform="translate(-11.75 180.25) rotate(-90)" gradientUnits="userSpaceOnUse">
            <stop offset="0.05" stop-color="#ffeb99" stop-opacity="0" />
            <stop offset="0.25" stop-color="#ffeb99" stop-opacity="0.29" />
            <stop offset="0.45" stop-color="#ffeb99" stop-opacity="0.55" />
            <stop offset="0.63" stop-color="#ffeb99" stop-opacity="0.74" />
            <stop offset="0.78" stop-color="#ffeb99" stop-opacity="0.88" />
            <stop offset="0.91" stop-color="#ffeb99" stop-opacity="0.97" />
            <stop offset="0.99" stop-color="#ffeb99" />
        </linearGradient>
        <linearGradient id="Gradiente_sem_nome_18-2" x1="84.49" y1="54.95" x2="84.49" y2="31.72"
            gradientTransform="translate(180.25 203.75) rotate(180)" xlink:href="#Gradiente_sem_nome_18" />
        <linearGradient id="Gradiente_sem_nome_18-3" x1="83.74" y1="54.81" x2="83.74" y2="31.58"
            gradientTransform="translate(11.75 -11.75)" xlink:href="#Gradiente_sem_nome_18" />
        <linearGradient id="Gradiente_sem_nome_18-4" x1="84.05" y1="55.25" x2="84.05" y2="32.03"
            gradientTransform="translate(203.75 11.75) rotate(90)" xlink:href="#Gradiente_sem_nome_18" />
    </defs>
    <title>icon-192</title>
    <rect class="cls-1" x="3.01" y="3.01" width="186.73" height="186.73" rx="34.64" />
    <path class="cls-2"
        d="M154.35,5.58A31.66,31.66,0,0,1,186,37.2V154.66a31.66,31.66,0,0,1-31.63,31.62H36.89A31.66,31.66,0,0,1,5.27,154.66V37.2A31.66,31.66,0,0,1,36.89,5.58H154.35m0-6H36.89A37.64,37.64,0,0,0-.75,37.2V154.66a37.65,37.65,0,0,0,37.64,37.65H154.35A37.65,37.65,0,0,0,192,154.66V37.2A37.65,37.65,0,0,0,154.35-.44Z"
        transform="translate(0.75 0.44)" />
    <g class="cls-3">
        <line class="cls-4" y1="160.63" x2="192.75" y2="160.63" />
        <line class="cls-4" y1="128.5" x2="192.75" y2="128.5" />
        <line class="cls-4" y1="96.38" x2="192.75" y2="96.38" />
        <line class="cls-4" y1="64.25" x2="192.75" y2="64.25" />
        <line class="cls-4" y1="32.13" x2="192.75" y2="32.13" />
    </g><text class="cls-5" transform="translate(25.14 133.68)">TR</text>
    <path class="cls-6" d="M43.29,92.68v6.77H22.63a3.39,3.39,0,0,1-3.39-3.39h0a3.38,3.38,0,0,1,3.39-3.38Z"
        transform="translate(0.75 0.44)" />
    <path class="cls-7" d="M92.37,148.26h6.77v20.66a3.38,3.38,0,0,1-3.38,3.39h0a3.39,3.39,0,0,1-3.39-3.39Z"
        transform="translate(0.75 0.44)" />
    <path class="cls-8" d="M98.88,43.6H92.1V22.94a3.39,3.39,0,0,1,3.39-3.39h0a3.39,3.39,0,0,1,3.39,3.39Z"
        transform="translate(0.75 0.44)" />
    <path class="cls-9" d="M148,99.19V92.41h20.66A3.39,3.39,0,0,1,172,95.8h0a3.39,3.39,0,0,1-3.39,3.39Z"
        transform="translate(0.75 0.44)" />
</svg>