<svg id="Camada_1" data-name="Camada 1" xmlns="http://www.w3.org/2000/svg" xmlns:xlink="http://www.w3.org/1999/xlink"
    viewBox="0 0 512 512">
    <defs>
        <style>
            @import url('https://fonts.googleapis.com/css2?family=Special+Elite&display=swap');
  .cls-1{fill:url(#Gradiente_sem_nome_4);}.cls-2{fill:#aa7918;}.cls-3{opacity:0.25;}.cls-4{fill:none;stroke:#aa7918;stroke-miterlimit:10;stroke-width:18px;}.cls-5{font-size:307.44px;fill:#ffeb99;font-family: 'Special Elite', cursive;}.cls-6{fill:url(#Gradiente_sem_nome_18);}.cls-7{fill:url(#Gradiente_sem_nome_18-2);}.cls-8{fill:url(#Gradiente_sem_nome_18-3);}.cls-9{fill:url(#Gradiente_sem_nome_18-4);}
            .cls-1 {
                fill: url(#Gradiente_sem_nome_4);
            }

            .cls-2 {
                fill: #aa7918;
            }

            .cls-3 {
                opacity: 0.25;
            }

            .cls-4 {
                fill: none;
                stroke: #aa7918;
                stroke-miterlimit: 10;
                stroke-width: 18px;
            }

            .cls-5 {
                font-size: 307.44px;
                fill: #ffeb99;
                font-family: SpecialElite-Regular, Special Elite;
            }

            .cls-6 {
                fill: url(#Gradiente_sem_nome_18);
            }

            .cls-7 {
                fill: url(#Gradiente_sem_nome_18-2);
            }

            .cls-8 {
                fill: url(#Gradiente_sem_nome_18-3);
            }

            .cls-9 {
                fill: url(#Gradiente_sem_nome_18-4);
            }
        </style>
        <radialGradient id="Gradiente_sem_nome_4" cx="256" cy="256" r="248" gradientUnits="userSpaceOnUse">
            <stop offset="0" stop-color="#4c3d00" />
            <stop offset="0.05" stop-color="#443700" />
            <stop offset="0.3" stop-color="#271f00" />
            <stop offset="0.54" stop-color="#110e00" />
            <stop offset="0.78" stop-color="#040300" />
            <stop offset="1" />
        </radialGradient>
        <linearGradient id="Gradiente_sem_nome_18" x1="243.9" y1="127.31" x2="243.9" y2="65.61"
            gradientTransform="translate(-11.75 500.25) rotate(-90)" gradientUnits="userSpaceOnUse">
            <stop offset="0.05" stop-color="#ffeb99" stop-opacity="0" />
            <stop offset="0.25" stop-color="#ffeb99" stop-opacity="0.29" />
            <stop offset="0.45" stop-color="#ffeb99" stop-opacity="0.55" />
            <stop offset="0.63" stop-color="#ffeb99" stop-opacity="0.74" />
            <stop offset="0.78" stop-color="#ffeb99" stop-opacity="0.88" />
            <stop offset="0.91" stop-color="#ffeb99" stop-opacity="0.97" />
            <stop offset="0.99" stop-color="#ffeb99" />
        </linearGradient>
        <linearGradient id="Gradiente_sem_nome_18-2" x1="243.9" y1="127.31" x2="243.9" y2="65.61"
            gradientTransform="translate(500.25 523.75) rotate(180)" xlink:href="#Gradiente_sem_nome_18" />
        <linearGradient id="Gradiente_sem_nome_18-3" x1="243.9" y1="127.31" x2="243.9" y2="65.61"
            gradientTransform="translate(11.75 -11.75)" xlink:href="#Gradiente_sem_nome_18" />
        <linearGradient id="Gradiente_sem_nome_18-4" x1="243.9" y1="127.31" x2="243.9" y2="65.61"
            gradientTransform="translate(523.75 11.75) rotate(90)" xlink:href="#Gradiente_sem_nome_18" />
    </defs>
    <title>icon-512</title>
    <rect class="cls-1" x="8" y="8" width="496" height="496" rx="92" />
    <path class="cls-2"
        d="M412,16a84.09,84.09,0,0,1,84,84V412a84.09,84.09,0,0,1-84,84H100a84.09,84.09,0,0,1-84-84V100a84.09,84.09,0,0,1,84-84H412m0-16H100A100,100,0,0,0,0,100V412A100,100,0,0,0,100,512H412A100,100,0,0,0,512,412V100A100,100,0,0,0,412,0Z" />
    <g class="cls-3">
        <line class="cls-4" y1="426.67" x2="512" y2="426.67" />
        <line class="cls-4" y1="341.33" x2="512" y2="341.33" />
        <line class="cls-4" y1="256" x2="512" y2="256" />
        <line class="cls-4" y1="170.67" x2="512" y2="170.67" />
        <line class="cls-4" y1="85.33" x2="512" y2="85.33" />
    </g><text class="cls-5" transform="translate(66.78 355.07)">TR</text>
    <path class="cls-6" d="M117,247.35v18H62.12a9,9,0,0,1-9-9h0a9,9,0,0,1,9-9Z" />
    <path class="cls-7" d="M247.35,395h18v54.88a9,9,0,0,1-9,9h0a9,9,0,0,1-9-9Z" />
    <path class="cls-8" d="M264.65,117h-18V62.12a9,9,0,0,1,9-9h0a9,9,0,0,1,9,9Z" />
    <path class="cls-9" d="M395,264.65v-18h54.88a9,9,0,0,1,9,9h0a9,9,0,0,1-9,9Z" />
</svg>